<svg xmlns="http://www.w3.org/2000/svg" width="1920" height="929" style="cursor: move;"><g><path class="link" marker-end="url(#arrow)" d="M560,433.5, 981,167" style="stroke-width: 0.57; stroke-opacity: 1; stroke: rgb(80, 80, 80);"></path><path class="link" marker-end="url(#arrow)" d="M560,433.5, 981,208" style="stroke-width: 0.57; stroke-opacity: 1; stroke: rgb(80, 80, 80);"></path><path class="link" marker-end="url(#arrow)" d="M560,433.5, 981,249" style="stroke-width: 0.57; stroke-opacity: 1; stroke: rgb(80, 80, 80);"></path><path class="link" marker-end="url(#arrow)" d="M560,433.5, 981,290" style="stroke-width: 0.57; stroke-opacity: 1; stroke: rgb(80, 80, 80);"></path><path class="link" marker-end="url(#arrow)" d="M560,433.5, 981,331" style="stroke-width: 0.57; stroke-opacity: 1; stroke: rgb(80, 80, 80);"></path><path class="link" marker-end="url(#arrow)" d="M560,433.5, 981,372" style="stroke-width: 0.57; stroke-opacity: 1; stroke: rgb(80, 80, 80);"></path><path class="link" marker-end="url(#arrow)" d="M560,433.5, 981,413" style="stroke-width: 0.57; stroke-opacity: 1; stroke: rgb(80, 80, 80);"></path><path class="link" marker-end="url(#arrow)" d="M560,433.5, 981,454" style="stroke-width: 0.57; stroke-opacity: 1; stroke: rgb(80, 80, 80);"></path><path class="link" marker-end="url(#arrow)" d="M560,433.5, 981,495" style="stroke-width: 0.57; stroke-opacity: 1; stroke: rgb(80, 80, 80);"></path><path class="link" marker-end="url(#arrow)" d="M560,433.5, 981,536" style="stroke-width: 0.57; stroke-opacity: 1; stroke: rgb(80, 80, 80);"></path><path class="link" marker-end="url(#arrow)" d="M560,433.5, 981,577" style="stroke-width: 0.57; stroke-opacity: 1; stroke: rgb(80, 80, 80);"></path><path class="link" marker-end="url(#arrow)" d="M560,474.5, 981,167" style="stroke-width: 0.57; stroke-opacity: 1; stroke: rgb(80, 80, 80);"></path><path class="link" marker-end="url(#arrow)" d="M560,474.5, 981,208" style="stroke-width: 0.57; stroke-opacity: 1; stroke: rgb(80, 80, 80);"></path><path class="link" marker-end="url(#arrow)" d="M560,474.5, 981,249" style="stroke-width: 0.57; stroke-opacity: 1; stroke: rgb(80, 80, 80);"></path><path class="link" marker-end="url(#arrow)" d="M560,474.5, 981,290" style="stroke-width: 0.57; stroke-opacity: 1; stroke: rgb(80, 80, 80);"></path><path class="link" marker-end="url(#arrow)" d="M560,474.5, 981,331" style="stroke-width: 0.57; stroke-opacity: 1; stroke: rgb(80, 80, 80);"></path><path class="link" marker-end="url(#arrow)" d="M560,474.5, 981,372" style="stroke-width: 0.57; stroke-opacity: 1; stroke: rgb(80, 80, 80);"></path><path class="link" marker-end="url(#arrow)" d="M560,474.5, 981,413" style="stroke-width: 0.57; stroke-opacity: 1; stroke: rgb(80, 80, 80);"></path><path class="link" marker-end="url(#arrow)" d="M560,474.5, 981,454" style="stroke-width: 0.57; stroke-opacity: 1; stroke: rgb(80, 80, 80);"></path><path class="link" marker-end="url(#arrow)" d="M560,474.5, 981,495" style="stroke-width: 0.57; stroke-opacity: 1; stroke: rgb(80, 80, 80);"></path><path class="link" marker-end="url(#arrow)" d="M560,474.5, 981,536" style="stroke-width: 0.57; stroke-opacity: 1; stroke: rgb(80, 80, 80);"></path><path class="link" marker-end="url(#arrow)" d="M560,474.5, 981,577" style="stroke-width: 0.57; stroke-opacity: 1; stroke: rgb(80, 80, 80);"></path><path class="link" marker-end="url(#arrow)" d="M981,126, 1402,454" style="stroke-width: 0.57; stroke-opacity: 1; stroke: rgb(80, 80, 80);"></path><path class="link" marker-end="url(#arrow)" d="M981,167, 1402,454" style="stroke-width: 0.57; stroke-opacity: 1; stroke: rgb(80, 80, 80);"></path><path class="link" marker-end="url(#arrow)" d="M981,208, 1402,454" style="stroke-width: 0.57; stroke-opacity: 1; stroke: rgb(80, 80, 80);"></path><path class="link" marker-end="url(#arrow)" d="M981,249, 1402,454" style="stroke-width: 0.57; stroke-opacity: 1; stroke: rgb(80, 80, 80);"></path><path class="link" marker-end="url(#arrow)" d="M981,290, 1402,454" style="stroke-width: 0.57; stroke-opacity: 1; stroke: rgb(80, 80, 80);"></path><path class="link" marker-end="url(#arrow)" d="M981,331, 1402,454" style="stroke-width: 0.57; stroke-opacity: 1; stroke: rgb(80, 80, 80);"></path><path class="link" marker-end="url(#arrow)" d="M981,372, 1402,454" style="stroke-width: 0.57; stroke-opacity: 1; stroke: rgb(80, 80, 80);"></path><path class="link" marker-end="url(#arrow)" d="M981,413, 1402,454" style="stroke-width: 0.57; stroke-opacity: 1; stroke: rgb(80, 80, 80);"></path><path class="link" marker-end="url(#arrow)" d="M981,454, 1402,454" style="stroke-width: 0.57; stroke-opacity: 1; stroke: rgb(80, 80, 80);"></path><path class="link" marker-end="url(#arrow)" d="M981,495, 1402,454" style="stroke-width: 0.57; stroke-opacity: 1; stroke: rgb(80, 80, 80);"></path><path class="link" marker-end="url(#arrow)" d="M981,536, 1402,454" style="stroke-width: 0.57; stroke-opacity: 1; stroke: rgb(80, 80, 80);"></path><path class="link" marker-end="url(#arrow)" d="M981,577, 1402,454" style="stroke-width: 0.57; stroke-opacity: 1; stroke: rgb(80, 80, 80);"></path><path class="link" marker-end="url(#arrow)" d="M560,433.5, 981,618" style="stroke-width: 0.57; stroke-opacity: 1; stroke: rgb(80, 80, 80);"></path><path class="link" marker-end="url(#arrow)" d="M560,433.5, 981,659" style="stroke-width: 0.57; stroke-opacity: 1; stroke: rgb(80, 80, 80);"></path><path class="link" marker-end="url(#arrow)" d="M560,433.5, 981,700" style="stroke-width: 0.57; stroke-opacity: 1; stroke: rgb(80, 80, 80);"></path><path class="link" marker-end="url(#arrow)" d="M560,433.5, 981,741" style="stroke-width: 0.57; stroke-opacity: 1; stroke: rgb(80, 80, 80);"></path><path class="link" marker-end="url(#arrow)" d="M560,433.5, 981,782" style="stroke-width: 0.57; stroke-opacity: 1; stroke: rgb(80, 80, 80);"></path><path class="link" marker-end="url(#arrow)" d="M560,474.5, 981,618" style="stroke-width: 0.57; stroke-opacity: 1; stroke: rgb(80, 80, 80);"></path><path class="link" marker-end="url(#arrow)" d="M560,474.5, 981,659" style="stroke-width: 0.57; stroke-opacity: 1; stroke: rgb(80, 80, 80);"></path><path class="link" marker-end="url(#arrow)" d="M560,474.5, 981,700" style="stroke-width: 0.57; stroke-opacity: 1; stroke: rgb(80, 80, 80);"></path><path class="link" marker-end="url(#arrow)" d="M560,474.5, 981,741" style="stroke-width: 0.57; stroke-opacity: 1; stroke: rgb(80, 80, 80);"></path><path class="link" marker-end="url(#arrow)" d="M560,474.5, 981,782" style="stroke-width: 0.57; stroke-opacity: 1; stroke: rgb(80, 80, 80);"></path><path class="link" marker-end="url(#arrow)" d="M981,618, 1402,454" style="stroke-width: 0.57; stroke-opacity: 1; stroke: rgb(80, 80, 80);"></path><path class="link" marker-end="url(#arrow)" d="M981,659, 1402,454" style="stroke-width: 0.57; stroke-opacity: 1; stroke: rgb(80, 80, 80);"></path><path class="link" marker-end="url(#arrow)" d="M981,700, 1402,454" style="stroke-width: 0.57; stroke-opacity: 1; stroke: rgb(80, 80, 80);"></path><path class="link" marker-end="url(#arrow)" d="M981,741, 1402,454" style="stroke-width: 0.57; stroke-opacity: 1; stroke: rgb(80, 80, 80);"></path><path class="link" marker-end="url(#arrow)" d="M981,782, 1402,454" style="stroke-width: 0.57; stroke-opacity: 1; stroke: rgb(80, 80, 80);"></path><circle r="13" class="node" id="0_0" cx="560" cy="433.5" style="fill: rgb(255, 255, 255); stroke: rgb(51, 51, 51);"></circle><circle r="13" class="node" id="0_1" cx="560" cy="474.5" style="fill: rgb(255, 255, 255); stroke: rgb(51, 51, 51);"></circle><circle r="13" class="node" id="1_0" cx="981" cy="126" style="fill: rgb(255, 255, 255); stroke: rgb(51, 51, 51);"></circle><circle r="13" class="node" id="1_1" cx="981" cy="167" style="fill: rgb(255, 255, 255); stroke: rgb(51, 51, 51);"></circle><circle r="13" class="node" id="1_2" cx="981" cy="208" style="fill: rgb(255, 255, 255); stroke: rgb(51, 51, 51);"></circle><circle r="13" class="node" id="1_3" cx="981" cy="249" style="fill: rgb(255, 255, 255); stroke: rgb(51, 51, 51);"></circle><circle r="13" class="node" id="1_4" cx="981" cy="290" style="fill: rgb(255, 255, 255); stroke: rgb(51, 51, 51);"></circle><circle r="13" class="node" id="1_5" cx="981" cy="331" style="fill: rgb(255, 255, 255); stroke: rgb(51, 51, 51);"></circle><circle r="13" class="node" id="1_6" cx="981" cy="372" style="fill: rgb(255, 255, 255); stroke: rgb(51, 51, 51);"></circle><circle r="13" class="node" id="1_7" cx="981" cy="413" style="fill: rgb(255, 255, 255); stroke: rgb(51, 51, 51);"></circle><circle r="13" class="node" id="1_8" cx="981" cy="454" style="fill: rgb(255, 255, 255); stroke: rgb(51, 51, 51);"></circle><circle r="13" class="node" id="1_9" cx="981" cy="495" style="fill: rgb(255, 255, 255); stroke: rgb(51, 51, 51);"></circle><circle r="13" class="node" id="1_10" cx="981" cy="536" style="fill: rgb(255, 255, 255); stroke: rgb(51, 51, 51);"></circle><circle r="13" class="node" id="1_11" cx="981" cy="577" style="fill: rgb(255, 255, 255); stroke: rgb(51, 51, 51);"></circle><circle r="13" class="node" id="1_12" cx="981" cy="618" style="fill: rgb(255, 255, 255); stroke: rgb(51, 51, 51);"></circle><circle r="13" class="node" id="1_13" cx="981" cy="659" style="fill: rgb(255, 255, 255); stroke: rgb(51, 51, 51);"></circle><circle r="13" class="node" id="1_14" cx="981" cy="700" style="fill: rgb(255, 255, 255); stroke: rgb(51, 51, 51);"></circle><circle r="13" class="node" id="1_15" cx="981" cy="741" style="fill: rgb(255, 255, 255); stroke: rgb(51, 51, 51);"></circle><circle r="13" class="node" id="1_16" cx="981" cy="782" style="fill: rgb(255, 255, 255); stroke: rgb(51, 51, 51);"></circle><circle r="13" class="node" id="2_0" cx="1402" cy="454" style="fill: rgb(255, 255, 255); stroke: rgb(51, 51, 51);"></circle><text class="text" dy=".35em" x="525" y="823" style="font-size: 12px;">Input Layer ∈ ℝ²</text><text class="text" dy=".35em" x="946" y="823" style="font-size: 12px;">Hidden Layer ∈ ℝ¹⁷</text><text class="text" dy=".35em" x="1367" y="823" style="font-size: 12px;">Output Layer ∈ ℝ¹</text></g><defs><marker id="arrow" viewBox="0 -5 10 10" markerWidth="7" markerHeight="7" orient="auto" refX="48.4"><path d="M0,-5L10,0L0,5" style="stroke: rgb(80, 80, 80); fill: none;"></path></marker></defs></svg>