<svg xmlns="http://www.w3.org/2000/svg" width="1920" height="872" style="cursor: move;"><g><path class="link" marker-end="url(#arrow)" d="M560,239, 986,101" style="stroke-width: 0.57; stroke-opacity: 1; stroke: rgb(80, 80, 80);"></path><path class="link" marker-end="url(#arrow)" d="M560,239, 986,147" style="stroke-width: 0.57; stroke-opacity: 1; stroke: rgb(80, 80, 80);"></path><path class="link" marker-end="url(#arrow)" d="M560,239, 986,193" style="stroke-width: 0.57; stroke-opacity: 1; stroke: rgb(80, 80, 80);"></path><path class="link" marker-end="url(#arrow)" d="M560,239, 986,239" style="stroke-width: 0.57; stroke-opacity: 1; stroke: rgb(80, 80, 80);"></path><path class="link" marker-end="url(#arrow)" d="M560,239, 986,285" style="stroke-width: 0.57; stroke-opacity: 1; stroke: rgb(80, 80, 80);"></path><path class="link" marker-end="url(#arrow)" d="M560,239, 986,331" style="stroke-width: 0.57; stroke-opacity: 1; stroke: rgb(80, 80, 80);"></path><path class="link" marker-end="url(#arrow)" d="M560,239, 986,377" style="stroke-width: 0.57; stroke-opacity: 1; stroke: rgb(80, 80, 80);"></path><path class="link" marker-end="url(#arrow)" d="M560,239, 986,423" style="stroke-width: 0.57; stroke-opacity: 1; stroke: rgb(80, 80, 80);"></path><path class="link" marker-end="url(#arrow)" d="M560,239, 986,469" style="stroke-width: 0.57; stroke-opacity: 1; stroke: rgb(80, 80, 80);"></path><path class="link" marker-end="url(#arrow)" d="M560,239, 986,515" style="stroke-width: 0.57; stroke-opacity: 1; stroke: rgb(80, 80, 80);"></path><path class="link" marker-end="url(#arrow)" d="M560,239, 986,561" style="stroke-width: 0.57; stroke-opacity: 1; stroke: rgb(80, 80, 80);"></path><path class="link" marker-end="url(#arrow)" d="M560,285, 986,101" style="stroke-width: 0.57; stroke-opacity: 1; stroke: rgb(80, 80, 80);"></path><path class="link" marker-end="url(#arrow)" d="M560,285, 986,147" style="stroke-width: 0.57; stroke-opacity: 1; stroke: rgb(80, 80, 80);"></path><path class="link" marker-end="url(#arrow)" d="M560,285, 986,193" style="stroke-width: 0.57; stroke-opacity: 1; stroke: rgb(80, 80, 80);"></path><path class="link" marker-end="url(#arrow)" d="M560,285, 986,239" style="stroke-width: 0.57; stroke-opacity: 1; stroke: rgb(80, 80, 80);"></path><path class="link" marker-end="url(#arrow)" d="M560,285, 986,285" style="stroke-width: 0.57; stroke-opacity: 1; stroke: rgb(80, 80, 80);"></path><path class="link" marker-end="url(#arrow)" d="M560,285, 986,331" style="stroke-width: 0.57; stroke-opacity: 1; stroke: rgb(80, 80, 80);"></path><path class="link" marker-end="url(#arrow)" d="M560,285, 986,377" style="stroke-width: 0.57; stroke-opacity: 1; stroke: rgb(80, 80, 80);"></path><path class="link" marker-end="url(#arrow)" d="M560,285, 986,423" style="stroke-width: 0.57; stroke-opacity: 1; stroke: rgb(80, 80, 80);"></path><path class="link" marker-end="url(#arrow)" d="M560,285, 986,469" style="stroke-width: 0.57; stroke-opacity: 1; stroke: rgb(80, 80, 80);"></path><path class="link" marker-end="url(#arrow)" d="M560,285, 986,515" style="stroke-width: 0.57; stroke-opacity: 1; stroke: rgb(80, 80, 80);"></path><path class="link" marker-end="url(#arrow)" d="M560,285, 986,561" style="stroke-width: 0.57; stroke-opacity: 1; stroke: rgb(80, 80, 80);"></path><path class="link" marker-end="url(#arrow)" d="M986,55, 1412,423" style="stroke-width: 0.57; stroke-opacity: 1; stroke: rgb(80, 80, 80);"></path><path class="link" marker-end="url(#arrow)" d="M986,101, 1412,423" style="stroke-width: 0.57; stroke-opacity: 1; stroke: rgb(80, 80, 80);"></path><path class="link" marker-end="url(#arrow)" d="M986,147, 1412,423" style="stroke-width: 0.57; stroke-opacity: 1; stroke: rgb(80, 80, 80);"></path><path class="link" marker-end="url(#arrow)" d="M986,193, 1412,423" style="stroke-width: 0.57; stroke-opacity: 1; stroke: rgb(80, 80, 80);"></path><path class="link" marker-end="url(#arrow)" d="M986,239, 1412,423" style="stroke-width: 0.57; stroke-opacity: 1; stroke: rgb(80, 80, 80);"></path><path class="link" marker-end="url(#arrow)" d="M986,285, 1412,423" style="stroke-width: 0.57; stroke-opacity: 1; stroke: rgb(80, 80, 80);"></path><path class="link" marker-end="url(#arrow)" d="M986,331, 1412,423" style="stroke-width: 0.57; stroke-opacity: 1; stroke: rgb(80, 80, 80);"></path><path class="link" marker-end="url(#arrow)" d="M986,377, 1412,423" style="stroke-width: 0.57; stroke-opacity: 1; stroke: rgb(80, 80, 80);"></path><path class="link" marker-end="url(#arrow)" d="M986,423, 1412,423" style="stroke-width: 0.57; stroke-opacity: 1; stroke: rgb(80, 80, 80);"></path><path class="link" marker-end="url(#arrow)" d="M986,469, 1412,423" style="stroke-width: 0.57; stroke-opacity: 1; stroke: rgb(80, 80, 80);"></path><path class="link" marker-end="url(#arrow)" d="M986,515, 1412,423" style="stroke-width: 0.57; stroke-opacity: 1; stroke: rgb(80, 80, 80);"></path><path class="link" marker-end="url(#arrow)" d="M986,561, 1412,423" style="stroke-width: 0.57; stroke-opacity: 1; stroke: rgb(80, 80, 80);"></path><path class="link" marker-end="url(#arrow)" d="M560,239, 986,607" style="stroke-width: 0.57; stroke-opacity: 1; stroke: rgb(80, 80, 80);"></path><path class="link" marker-end="url(#arrow)" d="M560,239, 986,653" style="stroke-width: 0.57; stroke-opacity: 1; stroke: rgb(80, 80, 80);"></path><path class="link" marker-end="url(#arrow)" d="M560,239, 986,699" style="stroke-width: 0.57; stroke-opacity: 1; stroke: rgb(80, 80, 80);"></path><path class="link" marker-end="url(#arrow)" d="M560,239, 986,745" style="stroke-width: 0.57; stroke-opacity: 1; stroke: rgb(80, 80, 80);"></path><path class="link" marker-end="url(#arrow)" d="M560,239, 986,791" style="stroke-width: 0.57; stroke-opacity: 1; stroke: rgb(80, 80, 80);"></path><path class="link" marker-end="url(#arrow)" d="M560,285, 986,607" style="stroke-width: 0.57; stroke-opacity: 1; stroke: rgb(80, 80, 80);"></path><path class="link" marker-end="url(#arrow)" d="M560,285, 986,653" style="stroke-width: 0.57; stroke-opacity: 1; stroke: rgb(80, 80, 80);"></path><path class="link" marker-end="url(#arrow)" d="M560,285, 986,699" style="stroke-width: 0.57; stroke-opacity: 1; stroke: rgb(80, 80, 80);"></path><path class="link" marker-end="url(#arrow)" d="M560,285, 986,745" style="stroke-width: 0.57; stroke-opacity: 1; stroke: rgb(80, 80, 80);"></path><path class="link" marker-end="url(#arrow)" d="M560,285, 986,791" style="stroke-width: 0.57; stroke-opacity: 1; stroke: rgb(80, 80, 80);"></path><path class="link" marker-end="url(#arrow)" d="M986,607, 1412,423" style="stroke-width: 0.57; stroke-opacity: 1; stroke: rgb(80, 80, 80);"></path><path class="link" marker-end="url(#arrow)" d="M986,653, 1412,423" style="stroke-width: 0.57; stroke-opacity: 1; stroke: rgb(80, 80, 80);"></path><path class="link" marker-end="url(#arrow)" d="M986,699, 1412,423" style="stroke-width: 0.57; stroke-opacity: 1; stroke: rgb(80, 80, 80);"></path><path class="link" marker-end="url(#arrow)" d="M986,745, 1412,423" style="stroke-width: 0.57; stroke-opacity: 1; stroke: rgb(80, 80, 80);"></path><path class="link" marker-end="url(#arrow)" d="M986,791, 1412,423" style="stroke-width: 0.57; stroke-opacity: 1; stroke: rgb(80, 80, 80);"></path><path class="link" marker-end="url(#arrow)" d="M560,331, 986,101" style="stroke-width: 0.57; stroke-opacity: 1; stroke: rgb(80, 80, 80);"></path><path class="link" marker-end="url(#arrow)" d="M560,331, 986,147" style="stroke-width: 0.57; stroke-opacity: 1; stroke: rgb(80, 80, 80);"></path><path class="link" marker-end="url(#arrow)" d="M560,331, 986,193" style="stroke-width: 0.57; stroke-opacity: 1; stroke: rgb(80, 80, 80);"></path><path class="link" marker-end="url(#arrow)" d="M560,331, 986,239" style="stroke-width: 0.57; stroke-opacity: 1; stroke: rgb(80, 80, 80);"></path><path class="link" marker-end="url(#arrow)" d="M560,331, 986,285" style="stroke-width: 0.57; stroke-opacity: 1; stroke: rgb(80, 80, 80);"></path><path class="link" marker-end="url(#arrow)" d="M560,331, 986,331" style="stroke-width: 0.57; stroke-opacity: 1; stroke: rgb(80, 80, 80);"></path><path class="link" marker-end="url(#arrow)" d="M560,331, 986,377" style="stroke-width: 0.57; stroke-opacity: 1; stroke: rgb(80, 80, 80);"></path><path class="link" marker-end="url(#arrow)" d="M560,331, 986,423" style="stroke-width: 0.57; stroke-opacity: 1; stroke: rgb(80, 80, 80);"></path><path class="link" marker-end="url(#arrow)" d="M560,331, 986,469" style="stroke-width: 0.57; stroke-opacity: 1; stroke: rgb(80, 80, 80);"></path><path class="link" marker-end="url(#arrow)" d="M560,331, 986,515" style="stroke-width: 0.57; stroke-opacity: 1; stroke: rgb(80, 80, 80);"></path><path class="link" marker-end="url(#arrow)" d="M560,331, 986,561" style="stroke-width: 0.57; stroke-opacity: 1; stroke: rgb(80, 80, 80);"></path><path class="link" marker-end="url(#arrow)" d="M560,331, 986,607" style="stroke-width: 0.57; stroke-opacity: 1; stroke: rgb(80, 80, 80);"></path><path class="link" marker-end="url(#arrow)" d="M560,331, 986,653" style="stroke-width: 0.57; stroke-opacity: 1; stroke: rgb(80, 80, 80);"></path><path class="link" marker-end="url(#arrow)" d="M560,331, 986,699" style="stroke-width: 0.57; stroke-opacity: 1; stroke: rgb(80, 80, 80);"></path><path class="link" marker-end="url(#arrow)" d="M560,331, 986,745" style="stroke-width: 0.57; stroke-opacity: 1; stroke: rgb(80, 80, 80);"></path><path class="link" marker-end="url(#arrow)" d="M560,331, 986,791" style="stroke-width: 0.57; stroke-opacity: 1; stroke: rgb(80, 80, 80);"></path><path class="link" marker-end="url(#arrow)" d="M560,377, 986,101" style="stroke-width: 0.57; stroke-opacity: 1; stroke: rgb(80, 80, 80);"></path><path class="link" marker-end="url(#arrow)" d="M560,377, 986,147" style="stroke-width: 0.57; stroke-opacity: 1; stroke: rgb(80, 80, 80);"></path><path class="link" marker-end="url(#arrow)" d="M560,377, 986,193" style="stroke-width: 0.57; stroke-opacity: 1; stroke: rgb(80, 80, 80);"></path><path class="link" marker-end="url(#arrow)" d="M560,377, 986,239" style="stroke-width: 0.57; stroke-opacity: 1; stroke: rgb(80, 80, 80);"></path><path class="link" marker-end="url(#arrow)" d="M560,377, 986,285" style="stroke-width: 0.57; stroke-opacity: 1; stroke: rgb(80, 80, 80);"></path><path class="link" marker-end="url(#arrow)" d="M560,377, 986,331" style="stroke-width: 0.57; stroke-opacity: 1; stroke: rgb(80, 80, 80);"></path><path class="link" marker-end="url(#arrow)" d="M560,377, 986,377" style="stroke-width: 0.57; stroke-opacity: 1; stroke: rgb(80, 80, 80);"></path><path class="link" marker-end="url(#arrow)" d="M560,377, 986,423" style="stroke-width: 0.57; stroke-opacity: 1; stroke: rgb(80, 80, 80);"></path><path class="link" marker-end="url(#arrow)" d="M560,377, 986,469" style="stroke-width: 0.57; stroke-opacity: 1; stroke: rgb(80, 80, 80);"></path><path class="link" marker-end="url(#arrow)" d="M560,377, 986,515" style="stroke-width: 0.57; stroke-opacity: 1; stroke: rgb(80, 80, 80);"></path><path class="link" marker-end="url(#arrow)" d="M560,377, 986,561" style="stroke-width: 0.57; stroke-opacity: 1; stroke: rgb(80, 80, 80);"></path><path class="link" marker-end="url(#arrow)" d="M560,377, 986,607" style="stroke-width: 0.57; stroke-opacity: 1; stroke: rgb(80, 80, 80);"></path><path class="link" marker-end="url(#arrow)" d="M560,377, 986,653" style="stroke-width: 0.57; stroke-opacity: 1; stroke: rgb(80, 80, 80);"></path><path class="link" marker-end="url(#arrow)" d="M560,377, 986,699" style="stroke-width: 0.57; stroke-opacity: 1; stroke: rgb(80, 80, 80);"></path><path class="link" marker-end="url(#arrow)" d="M560,377, 986,745" style="stroke-width: 0.57; stroke-opacity: 1; stroke: rgb(80, 80, 80);"></path><path class="link" marker-end="url(#arrow)" d="M560,377, 986,791" style="stroke-width: 0.57; stroke-opacity: 1; stroke: rgb(80, 80, 80);"></path><path class="link" marker-end="url(#arrow)" d="M560,423, 986,101" style="stroke-width: 0.57; stroke-opacity: 1; stroke: rgb(80, 80, 80);"></path><path class="link" marker-end="url(#arrow)" d="M560,423, 986,147" style="stroke-width: 0.57; stroke-opacity: 1; stroke: rgb(80, 80, 80);"></path><path class="link" marker-end="url(#arrow)" d="M560,423, 986,193" style="stroke-width: 0.57; stroke-opacity: 1; stroke: rgb(80, 80, 80);"></path><path class="link" marker-end="url(#arrow)" d="M560,423, 986,239" style="stroke-width: 0.57; stroke-opacity: 1; stroke: rgb(80, 80, 80);"></path><path class="link" marker-end="url(#arrow)" d="M560,423, 986,285" style="stroke-width: 0.57; stroke-opacity: 1; stroke: rgb(80, 80, 80);"></path><path class="link" marker-end="url(#arrow)" d="M560,423, 986,331" style="stroke-width: 0.57; stroke-opacity: 1; stroke: rgb(80, 80, 80);"></path><path class="link" marker-end="url(#arrow)" d="M560,423, 986,377" style="stroke-width: 0.57; stroke-opacity: 1; stroke: rgb(80, 80, 80);"></path><path class="link" marker-end="url(#arrow)" d="M560,423, 986,423" style="stroke-width: 0.57; stroke-opacity: 1; stroke: rgb(80, 80, 80);"></path><path class="link" marker-end="url(#arrow)" d="M560,423, 986,469" style="stroke-width: 0.57; stroke-opacity: 1; stroke: rgb(80, 80, 80);"></path><path class="link" marker-end="url(#arrow)" d="M560,423, 986,515" style="stroke-width: 0.57; stroke-opacity: 1; stroke: rgb(80, 80, 80);"></path><path class="link" marker-end="url(#arrow)" d="M560,423, 986,561" style="stroke-width: 0.57; stroke-opacity: 1; stroke: rgb(80, 80, 80);"></path><path class="link" marker-end="url(#arrow)" d="M560,423, 986,607" style="stroke-width: 0.57; stroke-opacity: 1; stroke: rgb(80, 80, 80);"></path><path class="link" marker-end="url(#arrow)" d="M560,423, 986,653" style="stroke-width: 0.57; stroke-opacity: 1; stroke: rgb(80, 80, 80);"></path><path class="link" marker-end="url(#arrow)" d="M560,423, 986,699" style="stroke-width: 0.57; stroke-opacity: 1; stroke: rgb(80, 80, 80);"></path><path class="link" marker-end="url(#arrow)" d="M560,423, 986,745" style="stroke-width: 0.57; stroke-opacity: 1; stroke: rgb(80, 80, 80);"></path><path class="link" marker-end="url(#arrow)" d="M560,423, 986,791" style="stroke-width: 0.57; stroke-opacity: 1; stroke: rgb(80, 80, 80);"></path><path class="link" marker-end="url(#arrow)" d="M560,469, 986,101" style="stroke-width: 0.57; stroke-opacity: 1; stroke: rgb(80, 80, 80);"></path><path class="link" marker-end="url(#arrow)" d="M560,469, 986,147" style="stroke-width: 0.57; stroke-opacity: 1; stroke: rgb(80, 80, 80);"></path><path class="link" marker-end="url(#arrow)" d="M560,469, 986,193" style="stroke-width: 0.57; stroke-opacity: 1; stroke: rgb(80, 80, 80);"></path><path class="link" marker-end="url(#arrow)" d="M560,469, 986,239" style="stroke-width: 0.57; stroke-opacity: 1; stroke: rgb(80, 80, 80);"></path><path class="link" marker-end="url(#arrow)" d="M560,469, 986,285" style="stroke-width: 0.57; stroke-opacity: 1; stroke: rgb(80, 80, 80);"></path><path class="link" marker-end="url(#arrow)" d="M560,469, 986,331" style="stroke-width: 0.57; stroke-opacity: 1; stroke: rgb(80, 80, 80);"></path><path class="link" marker-end="url(#arrow)" d="M560,469, 986,377" style="stroke-width: 0.57; stroke-opacity: 1; stroke: rgb(80, 80, 80);"></path><path class="link" marker-end="url(#arrow)" d="M560,469, 986,423" style="stroke-width: 0.57; stroke-opacity: 1; stroke: rgb(80, 80, 80);"></path><path class="link" marker-end="url(#arrow)" d="M560,469, 986,469" style="stroke-width: 0.57; stroke-opacity: 1; stroke: rgb(80, 80, 80);"></path><path class="link" marker-end="url(#arrow)" d="M560,469, 986,515" style="stroke-width: 0.57; stroke-opacity: 1; stroke: rgb(80, 80, 80);"></path><path class="link" marker-end="url(#arrow)" d="M560,469, 986,561" style="stroke-width: 0.57; stroke-opacity: 1; stroke: rgb(80, 80, 80);"></path><path class="link" marker-end="url(#arrow)" d="M560,469, 986,607" style="stroke-width: 0.57; stroke-opacity: 1; stroke: rgb(80, 80, 80);"></path><path class="link" marker-end="url(#arrow)" d="M560,469, 986,653" style="stroke-width: 0.57; stroke-opacity: 1; stroke: rgb(80, 80, 80);"></path><path class="link" marker-end="url(#arrow)" d="M560,469, 986,699" style="stroke-width: 0.57; stroke-opacity: 1; stroke: rgb(80, 80, 80);"></path><path class="link" marker-end="url(#arrow)" d="M560,469, 986,745" style="stroke-width: 0.57; stroke-opacity: 1; stroke: rgb(80, 80, 80);"></path><path class="link" marker-end="url(#arrow)" d="M560,469, 986,791" style="stroke-width: 0.57; stroke-opacity: 1; stroke: rgb(80, 80, 80);"></path><path class="link" marker-end="url(#arrow)" d="M560,515, 986,101" style="stroke-width: 0.57; stroke-opacity: 1; stroke: rgb(80, 80, 80);"></path><path class="link" marker-end="url(#arrow)" d="M560,515, 986,147" style="stroke-width: 0.57; stroke-opacity: 1; stroke: rgb(80, 80, 80);"></path><path class="link" marker-end="url(#arrow)" d="M560,515, 986,193" style="stroke-width: 0.57; stroke-opacity: 1; stroke: rgb(80, 80, 80);"></path><path class="link" marker-end="url(#arrow)" d="M560,515, 986,239" style="stroke-width: 0.57; stroke-opacity: 1; stroke: rgb(80, 80, 80);"></path><path class="link" marker-end="url(#arrow)" d="M560,515, 986,285" style="stroke-width: 0.57; stroke-opacity: 1; stroke: rgb(80, 80, 80);"></path><path class="link" marker-end="url(#arrow)" d="M560,515, 986,331" style="stroke-width: 0.57; stroke-opacity: 1; stroke: rgb(80, 80, 80);"></path><path class="link" marker-end="url(#arrow)" d="M560,515, 986,377" style="stroke-width: 0.57; stroke-opacity: 1; stroke: rgb(80, 80, 80);"></path><path class="link" marker-end="url(#arrow)" d="M560,515, 986,423" style="stroke-width: 0.57; stroke-opacity: 1; stroke: rgb(80, 80, 80);"></path><path class="link" marker-end="url(#arrow)" d="M560,515, 986,469" style="stroke-width: 0.57; stroke-opacity: 1; stroke: rgb(80, 80, 80);"></path><path class="link" marker-end="url(#arrow)" d="M560,515, 986,515" style="stroke-width: 0.57; stroke-opacity: 1; stroke: rgb(80, 80, 80);"></path><path class="link" marker-end="url(#arrow)" d="M560,515, 986,561" style="stroke-width: 0.57; stroke-opacity: 1; stroke: rgb(80, 80, 80);"></path><path class="link" marker-end="url(#arrow)" d="M560,515, 986,607" style="stroke-width: 0.57; stroke-opacity: 1; stroke: rgb(80, 80, 80);"></path><path class="link" marker-end="url(#arrow)" d="M560,515, 986,653" style="stroke-width: 0.57; stroke-opacity: 1; stroke: rgb(80, 80, 80);"></path><path class="link" marker-end="url(#arrow)" d="M560,515, 986,699" style="stroke-width: 0.57; stroke-opacity: 1; stroke: rgb(80, 80, 80);"></path><path class="link" marker-end="url(#arrow)" d="M560,515, 986,745" style="stroke-width: 0.57; stroke-opacity: 1; stroke: rgb(80, 80, 80);"></path><path class="link" marker-end="url(#arrow)" d="M560,515, 986,791" style="stroke-width: 0.57; stroke-opacity: 1; stroke: rgb(80, 80, 80);"></path><path class="link" marker-end="url(#arrow)" d="M560,561, 986,101" style="stroke-width: 0.57; stroke-opacity: 1; stroke: rgb(80, 80, 80);"></path><path class="link" marker-end="url(#arrow)" d="M560,561, 986,147" style="stroke-width: 0.57; stroke-opacity: 1; stroke: rgb(80, 80, 80);"></path><path class="link" marker-end="url(#arrow)" d="M560,561, 986,193" style="stroke-width: 0.57; stroke-opacity: 1; stroke: rgb(80, 80, 80);"></path><path class="link" marker-end="url(#arrow)" d="M560,561, 986,239" style="stroke-width: 0.57; stroke-opacity: 1; stroke: rgb(80, 80, 80);"></path><path class="link" marker-end="url(#arrow)" d="M560,561, 986,285" style="stroke-width: 0.57; stroke-opacity: 1; stroke: rgb(80, 80, 80);"></path><path class="link" marker-end="url(#arrow)" d="M560,561, 986,331" style="stroke-width: 0.57; stroke-opacity: 1; stroke: rgb(80, 80, 80);"></path><path class="link" marker-end="url(#arrow)" d="M560,561, 986,377" style="stroke-width: 0.57; stroke-opacity: 1; stroke: rgb(80, 80, 80);"></path><path class="link" marker-end="url(#arrow)" d="M560,561, 986,423" style="stroke-width: 0.57; stroke-opacity: 1; stroke: rgb(80, 80, 80);"></path><path class="link" marker-end="url(#arrow)" d="M560,561, 986,469" style="stroke-width: 0.57; stroke-opacity: 1; stroke: rgb(80, 80, 80);"></path><path class="link" marker-end="url(#arrow)" d="M560,561, 986,515" style="stroke-width: 0.57; stroke-opacity: 1; stroke: rgb(80, 80, 80);"></path><path class="link" marker-end="url(#arrow)" d="M560,561, 986,561" style="stroke-width: 0.57; stroke-opacity: 1; stroke: rgb(80, 80, 80);"></path><path class="link" marker-end="url(#arrow)" d="M560,561, 986,607" style="stroke-width: 0.57; stroke-opacity: 1; stroke: rgb(80, 80, 80);"></path><path class="link" marker-end="url(#arrow)" d="M560,561, 986,653" style="stroke-width: 0.57; stroke-opacity: 1; stroke: rgb(80, 80, 80);"></path><path class="link" marker-end="url(#arrow)" d="M560,561, 986,699" style="stroke-width: 0.57; stroke-opacity: 1; stroke: rgb(80, 80, 80);"></path><path class="link" marker-end="url(#arrow)" d="M560,561, 986,745" style="stroke-width: 0.57; stroke-opacity: 1; stroke: rgb(80, 80, 80);"></path><path class="link" marker-end="url(#arrow)" d="M560,561, 986,791" style="stroke-width: 0.57; stroke-opacity: 1; stroke: rgb(80, 80, 80);"></path><path class="link" marker-end="url(#arrow)" d="M560,607, 986,101" style="stroke-width: 0.57; stroke-opacity: 1; stroke: rgb(80, 80, 80);"></path><path class="link" marker-end="url(#arrow)" d="M560,607, 986,147" style="stroke-width: 0.57; stroke-opacity: 1; stroke: rgb(80, 80, 80);"></path><path class="link" marker-end="url(#arrow)" d="M560,607, 986,193" style="stroke-width: 0.57; stroke-opacity: 1; stroke: rgb(80, 80, 80);"></path><path class="link" marker-end="url(#arrow)" d="M560,607, 986,239" style="stroke-width: 0.57; stroke-opacity: 1; stroke: rgb(80, 80, 80);"></path><path class="link" marker-end="url(#arrow)" d="M560,607, 986,285" style="stroke-width: 0.57; stroke-opacity: 1; stroke: rgb(80, 80, 80);"></path><path class="link" marker-end="url(#arrow)" d="M560,607, 986,331" style="stroke-width: 0.57; stroke-opacity: 1; stroke: rgb(80, 80, 80);"></path><path class="link" marker-end="url(#arrow)" d="M560,607, 986,377" style="stroke-width: 0.57; stroke-opacity: 1; stroke: rgb(80, 80, 80);"></path><path class="link" marker-end="url(#arrow)" d="M560,607, 986,423" style="stroke-width: 0.57; stroke-opacity: 1; stroke: rgb(80, 80, 80);"></path><path class="link" marker-end="url(#arrow)" d="M560,607, 986,469" style="stroke-width: 0.57; stroke-opacity: 1; stroke: rgb(80, 80, 80);"></path><path class="link" marker-end="url(#arrow)" d="M560,607, 986,515" style="stroke-width: 0.57; stroke-opacity: 1; stroke: rgb(80, 80, 80);"></path><path class="link" marker-end="url(#arrow)" d="M560,607, 986,561" style="stroke-width: 0.57; stroke-opacity: 1; stroke: rgb(80, 80, 80);"></path><path class="link" marker-end="url(#arrow)" d="M560,607, 986,607" style="stroke-width: 0.57; stroke-opacity: 1; stroke: rgb(80, 80, 80);"></path><path class="link" marker-end="url(#arrow)" d="M560,607, 986,653" style="stroke-width: 0.57; stroke-opacity: 1; stroke: rgb(80, 80, 80);"></path><path class="link" marker-end="url(#arrow)" d="M560,607, 986,699" style="stroke-width: 0.57; stroke-opacity: 1; stroke: rgb(80, 80, 80);"></path><path class="link" marker-end="url(#arrow)" d="M560,607, 986,745" style="stroke-width: 0.57; stroke-opacity: 1; stroke: rgb(80, 80, 80);"></path><path class="link" marker-end="url(#arrow)" d="M560,607, 986,791" style="stroke-width: 0.57; stroke-opacity: 1; stroke: rgb(80, 80, 80);"></path><circle r="13" class="node" id="0_0" cx="560" cy="239" style="fill: rgb(255, 255, 255); stroke: rgb(51, 51, 51);"></circle><circle r="13" class="node" id="0_1" cx="560" cy="285" style="fill: rgb(255, 255, 255); stroke: rgb(51, 51, 51);"></circle><circle r="13" class="node" id="0_2" cx="560" cy="331" style="fill: rgb(255, 255, 255); stroke: rgb(51, 51, 51);"></circle><circle r="13" class="node" id="0_3" cx="560" cy="377" style="fill: rgb(255, 255, 255); stroke: rgb(51, 51, 51);"></circle><circle r="13" class="node" id="0_4" cx="560" cy="423" style="fill: rgb(255, 255, 255); stroke: rgb(51, 51, 51);"></circle><circle r="13" class="node" id="0_5" cx="560" cy="469" style="fill: rgb(255, 255, 255); stroke: rgb(51, 51, 51);"></circle><circle r="13" class="node" id="0_6" cx="560" cy="515" style="fill: rgb(255, 255, 255); stroke: rgb(51, 51, 51);"></circle><circle r="13" class="node" id="0_7" cx="560" cy="561" style="fill: rgb(255, 255, 255); stroke: rgb(51, 51, 51);"></circle><circle r="13" class="node" id="0_8" cx="560" cy="607" style="fill: rgb(255, 255, 255); stroke: rgb(51, 51, 51);"></circle><circle r="13" class="node" id="1_0" cx="986" cy="55" style="fill: rgb(255, 255, 255); stroke: rgb(51, 51, 51);"></circle><circle r="13" class="node" id="1_1" cx="986" cy="101" style="fill: rgb(255, 255, 255); stroke: rgb(51, 51, 51);"></circle><circle r="13" class="node" id="1_2" cx="986" cy="147" style="fill: rgb(255, 255, 255); stroke: rgb(51, 51, 51);"></circle><circle r="13" class="node" id="1_3" cx="986" cy="193" style="fill: rgb(255, 255, 255); stroke: rgb(51, 51, 51);"></circle><circle r="13" class="node" id="1_4" cx="986" cy="239" style="fill: rgb(255, 255, 255); stroke: rgb(51, 51, 51);"></circle><circle r="13" class="node" id="1_5" cx="986" cy="285" style="fill: rgb(255, 255, 255); stroke: rgb(51, 51, 51);"></circle><circle r="13" class="node" id="1_6" cx="986" cy="331" style="fill: rgb(255, 255, 255); stroke: rgb(51, 51, 51);"></circle><circle r="13" class="node" id="1_7" cx="986" cy="377" style="fill: rgb(255, 255, 255); stroke: rgb(51, 51, 51);"></circle><circle r="13" class="node" id="1_8" cx="986" cy="423" style="fill: rgb(255, 255, 255); stroke: rgb(51, 51, 51);"></circle><circle r="13" class="node" id="1_9" cx="986" cy="469" style="fill: rgb(255, 255, 255); stroke: rgb(51, 51, 51);"></circle><circle r="13" class="node" id="1_10" cx="986" cy="515" style="fill: rgb(255, 255, 255); stroke: rgb(51, 51, 51);"></circle><circle r="13" class="node" id="1_11" cx="986" cy="561" style="fill: rgb(255, 255, 255); stroke: rgb(51, 51, 51);"></circle><circle r="13" class="node" id="1_12" cx="986" cy="607" style="fill: rgb(255, 255, 255); stroke: rgb(51, 51, 51);"></circle><circle r="13" class="node" id="1_13" cx="986" cy="653" style="fill: rgb(255, 255, 255); stroke: rgb(51, 51, 51);"></circle><circle r="13" class="node" id="1_14" cx="986" cy="699" style="fill: rgb(255, 255, 255); stroke: rgb(51, 51, 51);"></circle><circle r="13" class="node" id="1_15" cx="986" cy="745" style="fill: rgb(255, 255, 255); stroke: rgb(51, 51, 51);"></circle><circle r="13" class="node" id="1_16" cx="986" cy="791" style="fill: rgb(255, 255, 255); stroke: rgb(51, 51, 51);"></circle><circle r="13" class="node" id="2_0" cx="1412" cy="423" style="fill: rgb(255, 255, 255); stroke: rgb(51, 51, 51);"></circle><text class="text" dy=".35em" x="525" y="837" style="font-size: 12px;">Input Layer ∈ ℝ⁹</text><text class="text" dy=".35em" x="951" y="837" style="font-size: 12px;">Hidden Layer ∈ ℝ¹⁷</text><text class="text" dy=".35em" x="1377" y="837" style="font-size: 12px;">Output Layer ∈ ℝ¹</text></g><defs><marker id="arrow" viewBox="0 -5 10 10" markerWidth="7" markerHeight="7" orient="auto" refX="48.4"><path d="M0,-5L10,0L0,5" style="stroke: rgb(80, 80, 80); fill: none;"></path></marker></defs></svg>