<svg xmlns="http://www.w3.org/2000/svg" width="1920" height="929" style="cursor: move;"><g transform="translate(55,-35) scale(1)"><path class="link" marker-end="" d="M800,234.5, 980,174.5" style="stroke-width: 0.5; stroke-opacity: 1; stroke: rgb(80, 80, 80); opacity: 1;"></path><path class="link" marker-end="" d="M800,234.5, 980,214.5" style="stroke-width: 0.5; stroke-opacity: 1; stroke: rgb(80, 80, 80); opacity: 1;"></path><path class="link" marker-end="" d="M800,234.5, 980,254.5" style="stroke-width: 0.5; stroke-opacity: 1; stroke: rgb(80, 80, 80); opacity: 1;"></path><path class="link" marker-end="" d="M800,234.5, 980,294.5" style="stroke-width: 0.5; stroke-opacity: 1; stroke: rgb(80, 80, 80); opacity: 1;"></path><path class="link" marker-end="" d="M800,234.5, 980,334.5" style="stroke-width: 0.5; stroke-opacity: 1; stroke: rgb(80, 80, 80); opacity: 1;"></path><path class="link" marker-end="" d="M800,234.5, 980,374.5" style="stroke-width: 0.5; stroke-opacity: 1; stroke: rgb(80, 80, 80); opacity: 1;"></path><path class="link" marker-end="" d="M800,234.5, 980,414.5" style="stroke-width: 0.5; stroke-opacity: 1; stroke: rgb(80, 80, 80); opacity: 1;"></path><path class="link" marker-end="" d="M800,234.5, 980,454.5" style="stroke-width: 0.5; stroke-opacity: 1; stroke: rgb(80, 80, 80); opacity: 1;"></path><path class="link" marker-end="" d="M800,234.5, 980,494.5" style="stroke-width: 0.5; stroke-opacity: 1; stroke: rgb(80, 80, 80); opacity: 1;"></path><path class="link" marker-end="" d="M800,234.5, 980,534.5" style="stroke-width: 0.5; stroke-opacity: 1; stroke: rgb(80, 80, 80); opacity: 1;"></path><path class="link" marker-end="" d="M800,234.5, 980,574.5" style="stroke-width: 0.5; stroke-opacity: 1; stroke: rgb(80, 80, 80); opacity: 1;"></path><path class="link" marker-end="" d="M800,274.5, 980,174.5" style="stroke-width: 0.5; stroke-opacity: 1; stroke: rgb(80, 80, 80); opacity: 1;"></path><path class="link" marker-end="" d="M800,274.5, 980,214.5" style="stroke-width: 0.5; stroke-opacity: 1; stroke: rgb(80, 80, 80); opacity: 1;"></path><path class="link" marker-end="" d="M800,274.5, 980,254.5" style="stroke-width: 0.5; stroke-opacity: 1; stroke: rgb(80, 80, 80); opacity: 1;"></path><path class="link" marker-end="" d="M800,274.5, 980,294.5" style="stroke-width: 0.5; stroke-opacity: 1; stroke: rgb(80, 80, 80); opacity: 1;"></path><path class="link" marker-end="" d="M800,274.5, 980,334.5" style="stroke-width: 0.5; stroke-opacity: 1; stroke: rgb(80, 80, 80); opacity: 1;"></path><path class="link" marker-end="" d="M800,274.5, 980,374.5" style="stroke-width: 0.5; stroke-opacity: 1; stroke: rgb(80, 80, 80); opacity: 1;"></path><path class="link" marker-end="" d="M800,274.5, 980,414.5" style="stroke-width: 0.5; stroke-opacity: 1; stroke: rgb(80, 80, 80); opacity: 1;"></path><path class="link" marker-end="" d="M800,274.5, 980,454.5" style="stroke-width: 0.5; stroke-opacity: 1; stroke: rgb(80, 80, 80); opacity: 1;"></path><path class="link" marker-end="" d="M800,274.5, 980,494.5" style="stroke-width: 0.5; stroke-opacity: 1; stroke: rgb(80, 80, 80); opacity: 1;"></path><path class="link" marker-end="" d="M800,274.5, 980,534.5" style="stroke-width: 0.5; stroke-opacity: 1; stroke: rgb(80, 80, 80); opacity: 1;"></path><path class="link" marker-end="" d="M800,274.5, 980,574.5" style="stroke-width: 0.5; stroke-opacity: 1; stroke: rgb(80, 80, 80); opacity: 1;"></path><path class="link" marker-end="" d="M800,314.5, 980,174.5" style="stroke-width: 0.5; stroke-opacity: 1; stroke: rgb(80, 80, 80); opacity: 1;"></path><path class="link" marker-end="" d="M800,314.5, 980,214.5" style="stroke-width: 0.5; stroke-opacity: 1; stroke: rgb(80, 80, 80); opacity: 1;"></path><path class="link" marker-end="" d="M800,314.5, 980,254.5" style="stroke-width: 0.5; stroke-opacity: 1; stroke: rgb(80, 80, 80); opacity: 1;"></path><path class="link" marker-end="" d="M800,314.5, 980,294.5" style="stroke-width: 0.5; stroke-opacity: 1; stroke: rgb(80, 80, 80); opacity: 1;"></path><path class="link" marker-end="" d="M800,314.5, 980,334.5" style="stroke-width: 0.5; stroke-opacity: 1; stroke: rgb(80, 80, 80); opacity: 1;"></path><path class="link" marker-end="" d="M800,314.5, 980,374.5" style="stroke-width: 0.5; stroke-opacity: 1; stroke: rgb(80, 80, 80); opacity: 1;"></path><path class="link" marker-end="" d="M800,314.5, 980,414.5" style="stroke-width: 0.5; stroke-opacity: 1; stroke: rgb(80, 80, 80); opacity: 1;"></path><path class="link" marker-end="" d="M800,314.5, 980,454.5" style="stroke-width: 0.5; stroke-opacity: 1; stroke: rgb(80, 80, 80); opacity: 1;"></path><path class="link" marker-end="" d="M800,314.5, 980,494.5" style="stroke-width: 0.5; stroke-opacity: 1; stroke: rgb(80, 80, 80); opacity: 1;"></path><path class="link" marker-end="" d="M800,314.5, 980,534.5" style="stroke-width: 0.5; stroke-opacity: 1; stroke: rgb(80, 80, 80); opacity: 1;"></path><path class="link" marker-end="" d="M800,314.5, 980,574.5" style="stroke-width: 0.5; stroke-opacity: 1; stroke: rgb(80, 80, 80); opacity: 1;"></path><path class="link" marker-end="" d="M800,354.5, 980,174.5" style="stroke-width: 0.5; stroke-opacity: 1; stroke: rgb(80, 80, 80); opacity: 1;"></path><path class="link" marker-end="" d="M800,354.5, 980,214.5" style="stroke-width: 0.5; stroke-opacity: 1; stroke: rgb(80, 80, 80); opacity: 1;"></path><path class="link" marker-end="" d="M800,354.5, 980,254.5" style="stroke-width: 0.5; stroke-opacity: 1; stroke: rgb(80, 80, 80); opacity: 1;"></path><path class="link" marker-end="" d="M800,354.5, 980,294.5" style="stroke-width: 0.5; stroke-opacity: 1; stroke: rgb(80, 80, 80); opacity: 1;"></path><path class="link" marker-end="" d="M800,354.5, 980,334.5" style="stroke-width: 0.5; stroke-opacity: 1; stroke: rgb(80, 80, 80); opacity: 1;"></path><path class="link" marker-end="" d="M800,354.5, 980,374.5" style="stroke-width: 0.5; stroke-opacity: 1; stroke: rgb(80, 80, 80); opacity: 1;"></path><path class="link" marker-end="" d="M800,354.5, 980,414.5" style="stroke-width: 0.5; stroke-opacity: 1; stroke: rgb(80, 80, 80); opacity: 1;"></path><path class="link" marker-end="" d="M800,354.5, 980,454.5" style="stroke-width: 0.5; stroke-opacity: 1; stroke: rgb(80, 80, 80); opacity: 1;"></path><path class="link" marker-end="" d="M800,354.5, 980,494.5" style="stroke-width: 0.5; stroke-opacity: 1; stroke: rgb(80, 80, 80); opacity: 1;"></path><path class="link" marker-end="" d="M800,354.5, 980,534.5" style="stroke-width: 0.5; stroke-opacity: 1; stroke: rgb(80, 80, 80); opacity: 1;"></path><path class="link" marker-end="" d="M800,354.5, 980,574.5" style="stroke-width: 0.5; stroke-opacity: 1; stroke: rgb(80, 80, 80); opacity: 1;"></path><path class="link" marker-end="" d="M800,394.5, 980,174.5" style="stroke-width: 0.5; stroke-opacity: 1; stroke: rgb(80, 80, 80); opacity: 1;"></path><path class="link" marker-end="" d="M800,394.5, 980,214.5" style="stroke-width: 0.5; stroke-opacity: 1; stroke: rgb(80, 80, 80); opacity: 1;"></path><path class="link" marker-end="" d="M800,394.5, 980,254.5" style="stroke-width: 0.5; stroke-opacity: 1; stroke: rgb(80, 80, 80); opacity: 1;"></path><path class="link" marker-end="" d="M800,394.5, 980,294.5" style="stroke-width: 0.5; stroke-opacity: 1; stroke: rgb(80, 80, 80); opacity: 1;"></path><path class="link" marker-end="" d="M800,394.5, 980,334.5" style="stroke-width: 0.5; stroke-opacity: 1; stroke: rgb(80, 80, 80); opacity: 1;"></path><path class="link" marker-end="" d="M800,394.5, 980,374.5" style="stroke-width: 0.5; stroke-opacity: 1; stroke: rgb(80, 80, 80); opacity: 1;"></path><path class="link" marker-end="" d="M800,394.5, 980,414.5" style="stroke-width: 0.5; stroke-opacity: 1; stroke: rgb(80, 80, 80); opacity: 1;"></path><path class="link" marker-end="" d="M800,394.5, 980,454.5" style="stroke-width: 0.5; stroke-opacity: 1; stroke: rgb(80, 80, 80); opacity: 1;"></path><path class="link" marker-end="" d="M800,394.5, 980,494.5" style="stroke-width: 0.5; stroke-opacity: 1; stroke: rgb(80, 80, 80); opacity: 1;"></path><path class="link" marker-end="" d="M800,394.5, 980,534.5" style="stroke-width: 0.5; stroke-opacity: 1; stroke: rgb(80, 80, 80); opacity: 1;"></path><path class="link" marker-end="" d="M800,394.5, 980,574.5" style="stroke-width: 0.5; stroke-opacity: 1; stroke: rgb(80, 80, 80); opacity: 1;"></path><path class="link" marker-end="" d="M800,434.5, 980,174.5" style="stroke-width: 0.5; stroke-opacity: 1; stroke: rgb(80, 80, 80); opacity: 1;"></path><path class="link" marker-end="" d="M800,434.5, 980,214.5" style="stroke-width: 0.5; stroke-opacity: 1; stroke: rgb(80, 80, 80); opacity: 1;"></path><path class="link" marker-end="" d="M800,434.5, 980,254.5" style="stroke-width: 0.5; stroke-opacity: 1; stroke: rgb(80, 80, 80); opacity: 1;"></path><path class="link" marker-end="" d="M800,434.5, 980,294.5" style="stroke-width: 0.5; stroke-opacity: 1; stroke: rgb(80, 80, 80); opacity: 1;"></path><path class="link" marker-end="" d="M800,434.5, 980,334.5" style="stroke-width: 0.5; stroke-opacity: 1; stroke: rgb(80, 80, 80); opacity: 1;"></path><path class="link" marker-end="" d="M800,434.5, 980,374.5" style="stroke-width: 0.5; stroke-opacity: 1; stroke: rgb(80, 80, 80); opacity: 1;"></path><path class="link" marker-end="" d="M800,434.5, 980,414.5" style="stroke-width: 0.5; stroke-opacity: 1; stroke: rgb(80, 80, 80); opacity: 1;"></path><path class="link" marker-end="" d="M800,434.5, 980,454.5" style="stroke-width: 0.5; stroke-opacity: 1; stroke: rgb(80, 80, 80); opacity: 1;"></path><path class="link" marker-end="" d="M800,434.5, 980,494.5" style="stroke-width: 0.5; stroke-opacity: 1; stroke: rgb(80, 80, 80); opacity: 1;"></path><path class="link" marker-end="" d="M800,434.5, 980,534.5" style="stroke-width: 0.5; stroke-opacity: 1; stroke: rgb(80, 80, 80); opacity: 1;"></path><path class="link" marker-end="" d="M800,434.5, 980,574.5" style="stroke-width: 0.5; stroke-opacity: 1; stroke: rgb(80, 80, 80); opacity: 1;"></path><path class="link" marker-end="" d="M800,474.5, 980,174.5" style="stroke-width: 0.5; stroke-opacity: 1; stroke: rgb(80, 80, 80); opacity: 1;"></path><path class="link" marker-end="" d="M800,474.5, 980,214.5" style="stroke-width: 0.5; stroke-opacity: 1; stroke: rgb(80, 80, 80); opacity: 1;"></path><path class="link" marker-end="" d="M800,474.5, 980,254.5" style="stroke-width: 0.5; stroke-opacity: 1; stroke: rgb(80, 80, 80); opacity: 1;"></path><path class="link" marker-end="" d="M800,474.5, 980,294.5" style="stroke-width: 0.5; stroke-opacity: 1; stroke: rgb(80, 80, 80); opacity: 1;"></path><path class="link" marker-end="" d="M800,474.5, 980,334.5" style="stroke-width: 0.5; stroke-opacity: 1; stroke: rgb(80, 80, 80); opacity: 1;"></path><path class="link" marker-end="" d="M800,474.5, 980,374.5" style="stroke-width: 0.5; stroke-opacity: 1; stroke: rgb(80, 80, 80); opacity: 1;"></path><path class="link" marker-end="" d="M800,474.5, 980,414.5" style="stroke-width: 0.5; stroke-opacity: 1; stroke: rgb(80, 80, 80); opacity: 1;"></path><path class="link" marker-end="" d="M800,474.5, 980,454.5" style="stroke-width: 0.5; stroke-opacity: 1; stroke: rgb(80, 80, 80); opacity: 1;"></path><path class="link" marker-end="" d="M800,474.5, 980,494.5" style="stroke-width: 0.5; stroke-opacity: 1; stroke: rgb(80, 80, 80); opacity: 1;"></path><path class="link" marker-end="" d="M800,474.5, 980,534.5" style="stroke-width: 0.5; stroke-opacity: 1; stroke: rgb(80, 80, 80); opacity: 1;"></path><path class="link" marker-end="" d="M800,474.5, 980,574.5" style="stroke-width: 0.5; stroke-opacity: 1; stroke: rgb(80, 80, 80); opacity: 1;"></path><path class="link" marker-end="" d="M800,514.5, 980,174.5" style="stroke-width: 0.5; stroke-opacity: 1; stroke: rgb(80, 80, 80); opacity: 1;"></path><path class="link" marker-end="" d="M800,514.5, 980,214.5" style="stroke-width: 0.5; stroke-opacity: 1; stroke: rgb(80, 80, 80); opacity: 1;"></path><path class="link" marker-end="" d="M800,514.5, 980,254.5" style="stroke-width: 0.5; stroke-opacity: 1; stroke: rgb(80, 80, 80); opacity: 1;"></path><path class="link" marker-end="" d="M800,514.5, 980,294.5" style="stroke-width: 0.5; stroke-opacity: 1; stroke: rgb(80, 80, 80); opacity: 1;"></path><path class="link" marker-end="" d="M800,514.5, 980,334.5" style="stroke-width: 0.5; stroke-opacity: 1; stroke: rgb(80, 80, 80); opacity: 1;"></path><path class="link" marker-end="" d="M800,514.5, 980,374.5" style="stroke-width: 0.5; stroke-opacity: 1; stroke: rgb(80, 80, 80); opacity: 1;"></path><path class="link" marker-end="" d="M800,514.5, 980,414.5" style="stroke-width: 0.5; stroke-opacity: 1; stroke: rgb(80, 80, 80); opacity: 1;"></path><path class="link" marker-end="" d="M800,514.5, 980,454.5" style="stroke-width: 0.5; stroke-opacity: 1; stroke: rgb(80, 80, 80); opacity: 1;"></path><path class="link" marker-end="" d="M800,514.5, 980,494.5" style="stroke-width: 0.5; stroke-opacity: 1; stroke: rgb(80, 80, 80); opacity: 1;"></path><path class="link" marker-end="" d="M800,514.5, 980,534.5" style="stroke-width: 0.5; stroke-opacity: 1; stroke: rgb(80, 80, 80); opacity: 1;"></path><path class="link" marker-end="" d="M800,514.5, 980,574.5" style="stroke-width: 0.5; stroke-opacity: 1; stroke: rgb(80, 80, 80); opacity: 1;"></path><path class="link" marker-end="" d="M800,554.5, 980,174.5" style="stroke-width: 0.5; stroke-opacity: 1; stroke: rgb(80, 80, 80); opacity: 1;"></path><path class="link" marker-end="" d="M800,554.5, 980,214.5" style="stroke-width: 0.5; stroke-opacity: 1; stroke: rgb(80, 80, 80); opacity: 1;"></path><path class="link" marker-end="" d="M800,554.5, 980,254.5" style="stroke-width: 0.5; stroke-opacity: 1; stroke: rgb(80, 80, 80); opacity: 1;"></path><path class="link" marker-end="" d="M800,554.5, 980,294.5" style="stroke-width: 0.5; stroke-opacity: 1; stroke: rgb(80, 80, 80); opacity: 1;"></path><path class="link" marker-end="" d="M800,554.5, 980,334.5" style="stroke-width: 0.5; stroke-opacity: 1; stroke: rgb(80, 80, 80); opacity: 1;"></path><path class="link" marker-end="" d="M800,554.5, 980,374.5" style="stroke-width: 0.5; stroke-opacity: 1; stroke: rgb(80, 80, 80); opacity: 1;"></path><path class="link" marker-end="" d="M800,554.5, 980,414.5" style="stroke-width: 0.5; stroke-opacity: 1; stroke: rgb(80, 80, 80); opacity: 1;"></path><path class="link" marker-end="" d="M800,554.5, 980,454.5" style="stroke-width: 0.5; stroke-opacity: 1; stroke: rgb(80, 80, 80); opacity: 1;"></path><path class="link" marker-end="" d="M800,554.5, 980,494.5" style="stroke-width: 0.5; stroke-opacity: 1; stroke: rgb(80, 80, 80); opacity: 1;"></path><path class="link" marker-end="" d="M800,554.5, 980,534.5" style="stroke-width: 0.5; stroke-opacity: 1; stroke: rgb(80, 80, 80); opacity: 1;"></path><path class="link" marker-end="" d="M800,554.5, 980,574.5" style="stroke-width: 0.5; stroke-opacity: 1; stroke: rgb(80, 80, 80); opacity: 1;"></path><path class="link" marker-end="" d="M800,594.5, 980,174.5" style="stroke-width: 0.5; stroke-opacity: 1; stroke: rgb(80, 80, 80); opacity: 1;"></path><path class="link" marker-end="" d="M800,594.5, 980,214.5" style="stroke-width: 0.5; stroke-opacity: 1; stroke: rgb(80, 80, 80); opacity: 1;"></path><path class="link" marker-end="" d="M800,594.5, 980,254.5" style="stroke-width: 0.5; stroke-opacity: 1; stroke: rgb(80, 80, 80); opacity: 1;"></path><path class="link" marker-end="" d="M800,594.5, 980,294.5" style="stroke-width: 0.5; stroke-opacity: 1; stroke: rgb(80, 80, 80); opacity: 1;"></path><path class="link" marker-end="" d="M800,594.5, 980,334.5" style="stroke-width: 0.5; stroke-opacity: 1; stroke: rgb(80, 80, 80); opacity: 1;"></path><path class="link" marker-end="" d="M800,594.5, 980,374.5" style="stroke-width: 0.5; stroke-opacity: 1; stroke: rgb(80, 80, 80); opacity: 1;"></path><path class="link" marker-end="" d="M800,594.5, 980,414.5" style="stroke-width: 0.5; stroke-opacity: 1; stroke: rgb(80, 80, 80); opacity: 1;"></path><path class="link" marker-end="" d="M800,594.5, 980,454.5" style="stroke-width: 0.5; stroke-opacity: 1; stroke: rgb(80, 80, 80); opacity: 1;"></path><path class="link" marker-end="" d="M800,594.5, 980,494.5" style="stroke-width: 0.5; stroke-opacity: 1; stroke: rgb(80, 80, 80); opacity: 1;"></path><path class="link" marker-end="" d="M800,594.5, 980,534.5" style="stroke-width: 0.5; stroke-opacity: 1; stroke: rgb(80, 80, 80); opacity: 1;"></path><path class="link" marker-end="" d="M800,594.5, 980,574.5" style="stroke-width: 0.5; stroke-opacity: 1; stroke: rgb(80, 80, 80); opacity: 1;"></path><path class="link" marker-end="" d="M800,634.5, 980,174.5" style="stroke-width: 0.5; stroke-opacity: 1; stroke: rgb(80, 80, 80); opacity: 1;"></path><path class="link" marker-end="" d="M800,634.5, 980,214.5" style="stroke-width: 0.5; stroke-opacity: 1; stroke: rgb(80, 80, 80); opacity: 1;"></path><path class="link" marker-end="" d="M800,634.5, 980,254.5" style="stroke-width: 0.5; stroke-opacity: 1; stroke: rgb(80, 80, 80); opacity: 1;"></path><path class="link" marker-end="" d="M800,634.5, 980,294.5" style="stroke-width: 0.5; stroke-opacity: 1; stroke: rgb(80, 80, 80); opacity: 1;"></path><path class="link" marker-end="" d="M800,634.5, 980,334.5" style="stroke-width: 0.5; stroke-opacity: 1; stroke: rgb(80, 80, 80); opacity: 1;"></path><path class="link" marker-end="" d="M800,634.5, 980,374.5" style="stroke-width: 0.5; stroke-opacity: 1; stroke: rgb(80, 80, 80); opacity: 1;"></path><path class="link" marker-end="" d="M800,634.5, 980,414.5" style="stroke-width: 0.5; stroke-opacity: 1; stroke: rgb(80, 80, 80); opacity: 1;"></path><path class="link" marker-end="" d="M800,634.5, 980,454.5" style="stroke-width: 0.5; stroke-opacity: 1; stroke: rgb(80, 80, 80); opacity: 1;"></path><path class="link" marker-end="" d="M800,634.5, 980,494.5" style="stroke-width: 0.5; stroke-opacity: 1; stroke: rgb(80, 80, 80); opacity: 1;"></path><path class="link" marker-end="" d="M800,634.5, 980,534.5" style="stroke-width: 0.5; stroke-opacity: 1; stroke: rgb(80, 80, 80); opacity: 1;"></path><path class="link" marker-end="" d="M800,634.5, 980,574.5" style="stroke-width: 0.5; stroke-opacity: 1; stroke: rgb(80, 80, 80); opacity: 1;"></path><path class="link" marker-end="" d="M800,234.5, 980,614.5" style="stroke-width: 0.5; stroke-opacity: 1; stroke: rgb(80, 80, 80); opacity: 1;"></path><path class="link" marker-end="" d="M800,234.5, 980,654.5" style="stroke-width: 0.5; stroke-opacity: 1; stroke: rgb(80, 80, 80); opacity: 1;"></path><path class="link" marker-end="" d="M800,234.5, 980,694.5" style="stroke-width: 0.5; stroke-opacity: 1; stroke: rgb(80, 80, 80); opacity: 1;"></path><path class="link" marker-end="" d="M800,234.5, 980,734.5" style="stroke-width: 0.5; stroke-opacity: 1; stroke: rgb(80, 80, 80); opacity: 1;"></path><path class="link" marker-end="" d="M800,274.5, 980,614.5" style="stroke-width: 0.5; stroke-opacity: 1; stroke: rgb(80, 80, 80); opacity: 1;"></path><path class="link" marker-end="" d="M800,274.5, 980,654.5" style="stroke-width: 0.5; stroke-opacity: 1; stroke: rgb(80, 80, 80); opacity: 1;"></path><path class="link" marker-end="" d="M800,274.5, 980,694.5" style="stroke-width: 0.5; stroke-opacity: 1; stroke: rgb(80, 80, 80); opacity: 1;"></path><path class="link" marker-end="" d="M800,274.5, 980,734.5" style="stroke-width: 0.5; stroke-opacity: 1; stroke: rgb(80, 80, 80); opacity: 1;"></path><path class="link" marker-end="" d="M800,314.5, 980,614.5" style="stroke-width: 0.5; stroke-opacity: 1; stroke: rgb(80, 80, 80); opacity: 1;"></path><path class="link" marker-end="" d="M800,314.5, 980,654.5" style="stroke-width: 0.5; stroke-opacity: 1; stroke: rgb(80, 80, 80); opacity: 1;"></path><path class="link" marker-end="" d="M800,314.5, 980,694.5" style="stroke-width: 0.5; stroke-opacity: 1; stroke: rgb(80, 80, 80); opacity: 1;"></path><path class="link" marker-end="" d="M800,314.5, 980,734.5" style="stroke-width: 0.5; stroke-opacity: 1; stroke: rgb(80, 80, 80); opacity: 1;"></path><path class="link" marker-end="" d="M800,354.5, 980,614.5" style="stroke-width: 0.5; stroke-opacity: 1; stroke: rgb(80, 80, 80); opacity: 1;"></path><path class="link" marker-end="" d="M800,354.5, 980,654.5" style="stroke-width: 0.5; stroke-opacity: 1; stroke: rgb(80, 80, 80); opacity: 1;"></path><path class="link" marker-end="" d="M800,354.5, 980,694.5" style="stroke-width: 0.5; stroke-opacity: 1; stroke: rgb(80, 80, 80); opacity: 1;"></path><path class="link" marker-end="" d="M800,354.5, 980,734.5" style="stroke-width: 0.5; stroke-opacity: 1; stroke: rgb(80, 80, 80); opacity: 1;"></path><path class="link" marker-end="" d="M800,394.5, 980,614.5" style="stroke-width: 0.5; stroke-opacity: 1; stroke: rgb(80, 80, 80); opacity: 1;"></path><path class="link" marker-end="" d="M800,394.5, 980,654.5" style="stroke-width: 0.5; stroke-opacity: 1; stroke: rgb(80, 80, 80); opacity: 1;"></path><path class="link" marker-end="" d="M800,394.5, 980,694.5" style="stroke-width: 0.5; stroke-opacity: 1; stroke: rgb(80, 80, 80); opacity: 1;"></path><path class="link" marker-end="" d="M800,394.5, 980,734.5" style="stroke-width: 0.5; stroke-opacity: 1; stroke: rgb(80, 80, 80); opacity: 1;"></path><path class="link" marker-end="" d="M800,434.5, 980,614.5" style="stroke-width: 0.5; stroke-opacity: 1; stroke: rgb(80, 80, 80); opacity: 1;"></path><path class="link" marker-end="" d="M800,434.5, 980,654.5" style="stroke-width: 0.5; stroke-opacity: 1; stroke: rgb(80, 80, 80); opacity: 1;"></path><path class="link" marker-end="" d="M800,434.5, 980,694.5" style="stroke-width: 0.5; stroke-opacity: 1; stroke: rgb(80, 80, 80); opacity: 1;"></path><path class="link" marker-end="" d="M800,434.5, 980,734.5" style="stroke-width: 0.5; stroke-opacity: 1; stroke: rgb(80, 80, 80); opacity: 1;"></path><path class="link" marker-end="" d="M800,474.5, 980,614.5" style="stroke-width: 0.5; stroke-opacity: 1; stroke: rgb(80, 80, 80); opacity: 1;"></path><path class="link" marker-end="" d="M800,474.5, 980,654.5" style="stroke-width: 0.5; stroke-opacity: 1; stroke: rgb(80, 80, 80); opacity: 1;"></path><path class="link" marker-end="" d="M800,474.5, 980,694.5" style="stroke-width: 0.5; stroke-opacity: 1; stroke: rgb(80, 80, 80); opacity: 1;"></path><path class="link" marker-end="" d="M800,474.5, 980,734.5" style="stroke-width: 0.5; stroke-opacity: 1; stroke: rgb(80, 80, 80); opacity: 1;"></path><path class="link" marker-end="" d="M800,514.5, 980,614.5" style="stroke-width: 0.5; stroke-opacity: 1; stroke: rgb(80, 80, 80); opacity: 1;"></path><path class="link" marker-end="" d="M800,514.5, 980,654.5" style="stroke-width: 0.5; stroke-opacity: 1; stroke: rgb(80, 80, 80); opacity: 1;"></path><path class="link" marker-end="" d="M800,514.5, 980,694.5" style="stroke-width: 0.5; stroke-opacity: 1; stroke: rgb(80, 80, 80); opacity: 1;"></path><path class="link" marker-end="" d="M800,514.5, 980,734.5" style="stroke-width: 0.5; stroke-opacity: 1; stroke: rgb(80, 80, 80); opacity: 1;"></path><path class="link" marker-end="" d="M800,554.5, 980,614.5" style="stroke-width: 0.5; stroke-opacity: 1; stroke: rgb(80, 80, 80); opacity: 1;"></path><path class="link" marker-end="" d="M800,554.5, 980,654.5" style="stroke-width: 0.5; stroke-opacity: 1; stroke: rgb(80, 80, 80); opacity: 1;"></path><path class="link" marker-end="" d="M800,554.5, 980,694.5" style="stroke-width: 0.5; stroke-opacity: 1; stroke: rgb(80, 80, 80); opacity: 1;"></path><path class="link" marker-end="" d="M800,554.5, 980,734.5" style="stroke-width: 0.5; stroke-opacity: 1; stroke: rgb(80, 80, 80); opacity: 1;"></path><path class="link" marker-end="" d="M800,594.5, 980,614.5" style="stroke-width: 0.5; stroke-opacity: 1; stroke: rgb(80, 80, 80); opacity: 1;"></path><path class="link" marker-end="" d="M800,594.5, 980,654.5" style="stroke-width: 0.5; stroke-opacity: 1; stroke: rgb(80, 80, 80); opacity: 1;"></path><path class="link" marker-end="" d="M800,594.5, 980,694.5" style="stroke-width: 0.5; stroke-opacity: 1; stroke: rgb(80, 80, 80); opacity: 1;"></path><path class="link" marker-end="" d="M800,594.5, 980,734.5" style="stroke-width: 0.5; stroke-opacity: 1; stroke: rgb(80, 80, 80); opacity: 1;"></path><path class="link" marker-end="" d="M800,634.5, 980,614.5" style="stroke-width: 0.5; stroke-opacity: 1; stroke: rgb(80, 80, 80); opacity: 1;"></path><path class="link" marker-end="" d="M800,634.5, 980,654.5" style="stroke-width: 0.5; stroke-opacity: 1; stroke: rgb(80, 80, 80); opacity: 1;"></path><path class="link" marker-end="" d="M800,634.5, 980,694.5" style="stroke-width: 0.5; stroke-opacity: 1; stroke: rgb(80, 80, 80); opacity: 1;"></path><path class="link" marker-end="" d="M800,634.5, 980,734.5" style="stroke-width: 0.5; stroke-opacity: 1; stroke: rgb(80, 80, 80); opacity: 1;"></path><path class="link" marker-end="" d="M800,674.5, 980,174.5" style="stroke-width: 0.5; stroke-opacity: 1; stroke: rgb(80, 80, 80); opacity: 1;"></path><path class="link" marker-end="" d="M800,674.5, 980,214.5" style="stroke-width: 0.5; stroke-opacity: 1; stroke: rgb(80, 80, 80); opacity: 1;"></path><path class="link" marker-end="" d="M800,674.5, 980,254.5" style="stroke-width: 0.5; stroke-opacity: 1; stroke: rgb(80, 80, 80); opacity: 1;"></path><path class="link" marker-end="" d="M800,674.5, 980,294.5" style="stroke-width: 0.5; stroke-opacity: 1; stroke: rgb(80, 80, 80); opacity: 1;"></path><path class="link" marker-end="" d="M800,674.5, 980,334.5" style="stroke-width: 0.5; stroke-opacity: 1; stroke: rgb(80, 80, 80); opacity: 1;"></path><path class="link" marker-end="" d="M800,674.5, 980,374.5" style="stroke-width: 0.5; stroke-opacity: 1; stroke: rgb(80, 80, 80); opacity: 1;"></path><path class="link" marker-end="" d="M800,674.5, 980,414.5" style="stroke-width: 0.5; stroke-opacity: 1; stroke: rgb(80, 80, 80); opacity: 1;"></path><path class="link" marker-end="" d="M800,674.5, 980,454.5" style="stroke-width: 0.5; stroke-opacity: 1; stroke: rgb(80, 80, 80); opacity: 1;"></path><path class="link" marker-end="" d="M800,674.5, 980,494.5" style="stroke-width: 0.5; stroke-opacity: 1; stroke: rgb(80, 80, 80); opacity: 1;"></path><path class="link" marker-end="" d="M800,674.5, 980,534.5" style="stroke-width: 0.5; stroke-opacity: 1; stroke: rgb(80, 80, 80); opacity: 1;"></path><path class="link" marker-end="" d="M800,674.5, 980,574.5" style="stroke-width: 0.5; stroke-opacity: 1; stroke: rgb(80, 80, 80); opacity: 1;"></path><path class="link" marker-end="" d="M800,674.5, 980,614.5" style="stroke-width: 0.5; stroke-opacity: 1; stroke: rgb(80, 80, 80); opacity: 1;"></path><path class="link" marker-end="" d="M800,674.5, 980,654.5" style="stroke-width: 0.5; stroke-opacity: 1; stroke: rgb(80, 80, 80); opacity: 1;"></path><path class="link" marker-end="" d="M800,674.5, 980,694.5" style="stroke-width: 0.5; stroke-opacity: 1; stroke: rgb(80, 80, 80); opacity: 1;"></path><path class="link" marker-end="" d="M800,674.5, 980,734.5" style="stroke-width: 0.5; stroke-opacity: 1; stroke: rgb(80, 80, 80); opacity: 1;"></path><path class="link" marker-end="" d="M800,234.5, 980,774.5" style="stroke-width: 0.5; stroke-opacity: 1; stroke: rgb(80, 80, 80); opacity: 1;"></path><path class="link" marker-end="" d="M800,274.5, 980,774.5" style="stroke-width: 0.5; stroke-opacity: 1; stroke: rgb(80, 80, 80); opacity: 1;"></path><path class="link" marker-end="" d="M800,314.5, 980,774.5" style="stroke-width: 0.5; stroke-opacity: 1; stroke: rgb(80, 80, 80); opacity: 1;"></path><path class="link" marker-end="" d="M800,354.5, 980,774.5" style="stroke-width: 0.5; stroke-opacity: 1; stroke: rgb(80, 80, 80); opacity: 1;"></path><path class="link" marker-end="" d="M800,394.5, 980,774.5" style="stroke-width: 0.5; stroke-opacity: 1; stroke: rgb(80, 80, 80); opacity: 1;"></path><path class="link" marker-end="" d="M800,434.5, 980,774.5" style="stroke-width: 0.5; stroke-opacity: 1; stroke: rgb(80, 80, 80); opacity: 1;"></path><path class="link" marker-end="" d="M800,474.5, 980,774.5" style="stroke-width: 0.5; stroke-opacity: 1; stroke: rgb(80, 80, 80); opacity: 1;"></path><path class="link" marker-end="" d="M800,514.5, 980,774.5" style="stroke-width: 0.5; stroke-opacity: 1; stroke: rgb(80, 80, 80); opacity: 1;"></path><path class="link" marker-end="" d="M800,554.5, 980,774.5" style="stroke-width: 0.5; stroke-opacity: 1; stroke: rgb(80, 80, 80); opacity: 1;"></path><path class="link" marker-end="" d="M800,594.5, 980,774.5" style="stroke-width: 0.5; stroke-opacity: 1; stroke: rgb(80, 80, 80); opacity: 1;"></path><path class="link" marker-end="" d="M800,634.5, 980,774.5" style="stroke-width: 0.5; stroke-opacity: 1; stroke: rgb(80, 80, 80); opacity: 1;"></path><path class="link" marker-end="" d="M800,674.5, 980,774.5" style="stroke-width: 0.5; stroke-opacity: 1; stroke: rgb(80, 80, 80); opacity: 1;"></path><path class="link" marker-end="" d="M980,134.5, 1160,366.5" style="stroke-width: 0.5; stroke-opacity: 1; stroke: rgb(80, 80, 80); opacity: 1;"></path><path class="link" marker-end="" d="M980,174.5, 1160,366.5" style="stroke-width: 0.5; stroke-opacity: 1; stroke: rgb(80, 80, 80); opacity: 1;"></path><path class="link" marker-end="" d="M980,214.5, 1160,366.5" style="stroke-width: 0.5; stroke-opacity: 1; stroke: rgb(80, 80, 80); opacity: 1;"></path><path class="link" marker-end="" d="M980,254.5, 1160,366.5" style="stroke-width: 0.5; stroke-opacity: 1; stroke: rgb(80, 80, 80); opacity: 1;"></path><path class="link" marker-end="" d="M980,294.5, 1160,366.5" style="stroke-width: 0.5; stroke-opacity: 1; stroke: rgb(80, 80, 80); opacity: 1;"></path><path class="link" marker-end="" d="M980,334.5, 1160,366.5" style="stroke-width: 0.5; stroke-opacity: 1; stroke: rgb(80, 80, 80); opacity: 1;"></path><path class="link" marker-end="" d="M980,374.5, 1160,366.5" style="stroke-width: 0.5; stroke-opacity: 1; stroke: rgb(80, 80, 80); opacity: 1;"></path><path class="link" marker-end="" d="M980,414.5, 1160,366.5" style="stroke-width: 0.5; stroke-opacity: 1; stroke: rgb(80, 80, 80); opacity: 1;"></path><path class="link" marker-end="" d="M980,454.5, 1160,366.5" style="stroke-width: 0.5; stroke-opacity: 1; stroke: rgb(80, 80, 80); opacity: 1;"></path><path class="link" marker-end="" d="M980,494.5, 1160,366.5" style="stroke-width: 0.5; stroke-opacity: 1; stroke: rgb(80, 80, 80); opacity: 1;"></path><path class="link" marker-end="" d="M980,534.5, 1160,366.5" style="stroke-width: 0.5; stroke-opacity: 1; stroke: rgb(80, 80, 80); opacity: 1;"></path><path class="link" marker-end="" d="M980,574.5, 1160,366.5" style="stroke-width: 0.5; stroke-opacity: 1; stroke: rgb(80, 80, 80); opacity: 1;"></path><path class="link" marker-end="" d="M980,614.5, 1160,366.5" style="stroke-width: 0.5; stroke-opacity: 1; stroke: rgb(80, 80, 80); opacity: 1;"></path><path class="link" marker-end="" d="M980,654.5, 1160,366.5" style="stroke-width: 0.5; stroke-opacity: 1; stroke: rgb(80, 80, 80); opacity: 1;"></path><path class="link" marker-end="" d="M980,694.5, 1160,366.5" style="stroke-width: 0.5; stroke-opacity: 1; stroke: rgb(80, 80, 80); opacity: 1;"></path><path class="link" marker-end="" d="M980,734.5, 1160,366.5" style="stroke-width: 0.5; stroke-opacity: 1; stroke: rgb(80, 80, 80); opacity: 1;"></path><path class="link" marker-end="" d="M980,774.5, 1160,366.5" style="stroke-width: 0.5; stroke-opacity: 1; stroke: rgb(80, 80, 80); opacity: 1;"></path><path class="link" marker-end="" d="M980,134.5, 1160,454.5" style="stroke-width: 0.5; stroke-opacity: 1; stroke: rgb(80, 80, 80); opacity: 1;"></path><path class="link" marker-end="" d="M980,174.5, 1160,454.5" style="stroke-width: 0.5; stroke-opacity: 1; stroke: rgb(80, 80, 80); opacity: 1;"></path><path class="link" marker-end="" d="M980,214.5, 1160,454.5" style="stroke-width: 0.5; stroke-opacity: 1; stroke: rgb(80, 80, 80); opacity: 1;"></path><path class="link" marker-end="" d="M980,254.5, 1160,454.5" style="stroke-width: 0.5; stroke-opacity: 1; stroke: rgb(80, 80, 80); opacity: 1;"></path><path class="link" marker-end="" d="M980,294.5, 1160,454.5" style="stroke-width: 0.5; stroke-opacity: 1; stroke: rgb(80, 80, 80); opacity: 1;"></path><path class="link" marker-end="" d="M980,334.5, 1160,454.5" style="stroke-width: 0.5; stroke-opacity: 1; stroke: rgb(80, 80, 80); opacity: 1;"></path><path class="link" marker-end="" d="M980,374.5, 1160,454.5" style="stroke-width: 0.5; stroke-opacity: 1; stroke: rgb(80, 80, 80); opacity: 1;"></path><path class="link" marker-end="" d="M980,414.5, 1160,454.5" style="stroke-width: 0.5; stroke-opacity: 1; stroke: rgb(80, 80, 80); opacity: 1;"></path><path class="link" marker-end="" d="M980,454.5, 1160,454.5" style="stroke-width: 0.5; stroke-opacity: 1; stroke: rgb(80, 80, 80); opacity: 1;"></path><path class="link" marker-end="" d="M980,494.5, 1160,454.5" style="stroke-width: 0.5; stroke-opacity: 1; stroke: rgb(80, 80, 80); opacity: 1;"></path><path class="link" marker-end="" d="M980,534.5, 1160,454.5" style="stroke-width: 0.5; stroke-opacity: 1; stroke: rgb(80, 80, 80); opacity: 1;"></path><path class="link" marker-end="" d="M980,574.5, 1160,454.5" style="stroke-width: 0.5; stroke-opacity: 1; stroke: rgb(80, 80, 80); opacity: 1;"></path><path class="link" marker-end="" d="M980,614.5, 1160,454.5" style="stroke-width: 0.5; stroke-opacity: 1; stroke: rgb(80, 80, 80); opacity: 1;"></path><path class="link" marker-end="" d="M980,654.5, 1160,454.5" style="stroke-width: 0.5; stroke-opacity: 1; stroke: rgb(80, 80, 80); opacity: 1;"></path><path class="link" marker-end="" d="M980,694.5, 1160,454.5" style="stroke-width: 0.5; stroke-opacity: 1; stroke: rgb(80, 80, 80); opacity: 1;"></path><path class="link" marker-end="" d="M980,734.5, 1160,454.5" style="stroke-width: 0.5; stroke-opacity: 1; stroke: rgb(80, 80, 80); opacity: 1;"></path><path class="link" marker-end="" d="M980,774.5, 1160,454.5" style="stroke-width: 0.5; stroke-opacity: 1; stroke: rgb(80, 80, 80); opacity: 1;"></path><path class="link" marker-end="" d="M980,134.5, 1160,542.5" style="stroke-width: 0.5; stroke-opacity: 1; stroke: rgb(80, 80, 80);"></path><path class="link" marker-end="" d="M980,174.5, 1160,542.5" style="stroke-width: 0.5; stroke-opacity: 1; stroke: rgb(80, 80, 80);"></path><path class="link" marker-end="" d="M980,214.5, 1160,542.5" style="stroke-width: 0.5; stroke-opacity: 1; stroke: rgb(80, 80, 80);"></path><path class="link" marker-end="" d="M980,254.5, 1160,542.5" style="stroke-width: 0.5; stroke-opacity: 1; stroke: rgb(80, 80, 80);"></path><path class="link" marker-end="" d="M980,294.5, 1160,542.5" style="stroke-width: 0.5; stroke-opacity: 1; stroke: rgb(80, 80, 80);"></path><path class="link" marker-end="" d="M980,334.5, 1160,542.5" style="stroke-width: 0.5; stroke-opacity: 1; stroke: rgb(80, 80, 80);"></path><path class="link" marker-end="" d="M980,374.5, 1160,542.5" style="stroke-width: 0.5; stroke-opacity: 1; stroke: rgb(80, 80, 80);"></path><path class="link" marker-end="" d="M980,414.5, 1160,542.5" style="stroke-width: 0.5; stroke-opacity: 1; stroke: rgb(80, 80, 80);"></path><path class="link" marker-end="" d="M980,454.5, 1160,542.5" style="stroke-width: 0.5; stroke-opacity: 1; stroke: rgb(80, 80, 80);"></path><path class="link" marker-end="" d="M980,494.5, 1160,542.5" style="stroke-width: 0.5; stroke-opacity: 1; stroke: rgb(80, 80, 80);"></path><path class="link" marker-end="" d="M980,534.5, 1160,542.5" style="stroke-width: 0.5; stroke-opacity: 1; stroke: rgb(80, 80, 80);"></path><path class="link" marker-end="" d="M980,574.5, 1160,542.5" style="stroke-width: 0.5; stroke-opacity: 1; stroke: rgb(80, 80, 80);"></path><path class="link" marker-end="" d="M980,614.5, 1160,542.5" style="stroke-width: 0.5; stroke-opacity: 1; stroke: rgb(80, 80, 80);"></path><path class="link" marker-end="" d="M980,654.5, 1160,542.5" style="stroke-width: 0.5; stroke-opacity: 1; stroke: rgb(80, 80, 80);"></path><path class="link" marker-end="" d="M980,694.5, 1160,542.5" style="stroke-width: 0.5; stroke-opacity: 1; stroke: rgb(80, 80, 80);"></path><path class="link" marker-end="" d="M980,734.5, 1160,542.5" style="stroke-width: 0.5; stroke-opacity: 1; stroke: rgb(80, 80, 80);"></path><path class="link" marker-end="" d="M980,774.5, 1160,542.5" style="stroke-width: 0.5; stroke-opacity: 1; stroke: rgb(80, 80, 80);"></path><circle r="10" class="node" id="0_0" cx="800" cy="234.5" style="fill: rgb(255, 255, 255); stroke: rgb(51, 51, 51); opacity: 1;"></circle><circle r="10" class="node" id="0_1" cx="800" cy="274.5" style="fill: rgb(255, 255, 255); stroke: rgb(51, 51, 51); opacity: 1;"></circle><circle r="10" class="node" id="0_2" cx="800" cy="314.5" style="fill: rgb(255, 255, 255); stroke: rgb(51, 51, 51); opacity: 1;"></circle><circle r="10" class="node" id="0_3" cx="800" cy="354.5" style="fill: rgb(255, 255, 255); stroke: rgb(51, 51, 51); opacity: 1;"></circle><circle r="10" class="node" id="0_4" cx="800" cy="394.5" style="fill: rgb(255, 255, 255); stroke: rgb(51, 51, 51); opacity: 1;"></circle><circle r="10" class="node" id="0_5" cx="800" cy="434.5" style="fill: rgb(255, 255, 255); stroke: rgb(51, 51, 51); opacity: 1;"></circle><circle r="10" class="node" id="0_6" cx="800" cy="474.5" style="fill: rgb(255, 255, 255); stroke: rgb(51, 51, 51); opacity: 1;"></circle><circle r="10" class="node" id="0_7" cx="800" cy="514.5" style="fill: rgb(255, 255, 255); stroke: rgb(51, 51, 51); opacity: 1;"></circle><circle r="10" class="node" id="0_8" cx="800" cy="554.5" style="fill: rgb(255, 255, 255); stroke: rgb(51, 51, 51); opacity: 1;"></circle><circle r="10" class="node" id="0_9" cx="800" cy="594.5" style="fill: rgb(255, 255, 255); stroke: rgb(51, 51, 51); opacity: 1;"></circle><circle r="10" class="node" id="0_10" cx="800" cy="634.5" style="fill: rgb(255, 255, 255); stroke: rgb(51, 51, 51); opacity: 1;"></circle><circle r="10" class="node" id="0_11" cx="800" cy="674.5" style="fill: rgb(255, 255, 255); stroke: rgb(51, 51, 51); opacity: 1;"></circle><circle r="10" class="node" id="1_0" cx="980" cy="134.5" style="fill: rgb(255, 255, 255); stroke: rgb(51, 51, 51); opacity: 1;"></circle><circle r="10" class="node" id="1_1" cx="980" cy="174.5" style="fill: rgb(255, 255, 255); stroke: rgb(51, 51, 51); opacity: 1;"></circle><circle r="10" class="node" id="1_2" cx="980" cy="214.5" style="fill: rgb(255, 255, 255); stroke: rgb(51, 51, 51); opacity: 1;"></circle><circle r="10" class="node" id="1_3" cx="980" cy="254.5" style="fill: rgb(255, 255, 255); stroke: rgb(51, 51, 51); opacity: 1;"></circle><circle r="10" class="node" id="1_4" cx="980" cy="294.5" style="fill: rgb(255, 255, 255); stroke: rgb(51, 51, 51); opacity: 1;"></circle><circle r="10" class="node" id="1_5" cx="980" cy="334.5" style="fill: rgb(255, 255, 255); stroke: rgb(51, 51, 51); opacity: 1;"></circle><circle r="10" class="node" id="1_6" cx="980" cy="374.5" style="fill: rgb(255, 255, 255); stroke: rgb(51, 51, 51); opacity: 1;"></circle><circle r="10" class="node" id="1_7" cx="980" cy="414.5" style="fill: rgb(255, 255, 255); stroke: rgb(51, 51, 51); opacity: 1;"></circle><circle r="10" class="node" id="1_8" cx="980" cy="454.5" style="fill: rgb(255, 255, 255); stroke: rgb(51, 51, 51); opacity: 1;"></circle><circle r="10" class="node" id="1_9" cx="980" cy="494.5" style="fill: rgb(255, 255, 255); stroke: rgb(51, 51, 51); opacity: 1;"></circle><circle r="10" class="node" id="1_10" cx="980" cy="534.5" style="fill: rgb(255, 255, 255); stroke: rgb(51, 51, 51); opacity: 1;"></circle><circle r="10" class="node" id="1_11" cx="980" cy="574.5" style="fill: rgb(255, 255, 255); stroke: rgb(51, 51, 51); opacity: 1;"></circle><circle r="10" class="node" id="1_12" cx="980" cy="614.5" style="fill: rgb(255, 255, 255); stroke: rgb(51, 51, 51); opacity: 1;"></circle><circle r="10" class="node" id="1_13" cx="980" cy="654.5" style="fill: rgb(255, 255, 255); stroke: rgb(51, 51, 51); opacity: 1;"></circle><circle r="10" class="node" id="1_14" cx="980" cy="694.5" style="fill: rgb(255, 255, 255); stroke: rgb(51, 51, 51); opacity: 1;"></circle><circle r="10" class="node" id="1_15" cx="980" cy="734.5" style="fill: rgb(255, 255, 255); stroke: rgb(51, 51, 51); opacity: 1;"></circle><circle r="10" class="node" id="1_16" cx="980" cy="774.5" style="fill: rgb(255, 255, 255); stroke: rgb(51, 51, 51); opacity: 1;"></circle><circle r="10" class="node" id="2_0" cx="1160" cy="366.5" style="fill: rgb(255, 255, 255); stroke: rgb(51, 51, 51); opacity: 1;"></circle><text class="text" dy=".35em" x="765" y="814.5" style="font-size: 12px;">Input Layer ∈ ℝ¹²</text><text class="text" dy=".35em" x="945" y="814.5" style="font-size: 12px;">Hidden Layer ∈ ℝ¹⁷</text><text class="text" dy=".35em" x="1125" y="814.5" style="font-size: 12px;">Output Layer ∈ ℝ³</text><circle r="10" class="node" id="2_1" cx="1160" cy="454.5" style="fill: rgb(255, 255, 255); stroke: rgb(51, 51, 51); opacity: 1;"></circle><circle r="10" class="node" id="2_2" cx="1160" cy="542.5" style="fill: rgb(255, 255, 255); stroke: rgb(51, 51, 51);"></circle></g><defs><marker id="arrow" viewBox="0 -5 10 10" markerWidth="7" markerHeight="7" orient="auto" refX="40"><path d="M0,-5L10,0L0,5" style="stroke: rgb(80, 80, 80); fill: none;"></path></marker></defs></svg>